<svg width="30" height="30" viewBox="0 0 30 30" fill="none" xmlns="http://www.w3.org/2000/svg">
<circle cx="15" cy="15" r="15" fill="#B82C30"/>
<path d="M20.3332 21V19.6667C20.3332 18.9594 20.0522 18.2811 19.5521 17.781C19.052 17.281 18.3737 17 17.6665 17H12.3332C11.6259 17 10.9476 17.281 10.4476 17.781C9.94746 18.2811 9.6665 18.9594 9.6665 19.6667V21" stroke="white" stroke-width="1.5" stroke-linecap="round" stroke-linejoin="round"/>
<path d="M15.0002 14.3333C16.4729 14.3333 17.6668 13.1394 17.6668 11.6667C17.6668 10.1939 16.4729 9 15.0002 9C13.5274 9 12.3335 10.1939 12.3335 11.6667C12.3335 13.1394 13.5274 14.3333 15.0002 14.3333Z" stroke="white" stroke-width="1.5" stroke-linecap="round" stroke-linejoin="round"/>
</svg>
