<svg width="120" height="110" viewBox="0 0 120 110" fill="none" xmlns="http://www.w3.org/2000/svg">
<path d="M80.257 15.5142C80.1022 15.4508 80.0484 15.4411 80.0094 15.4084C78.4337 14.0951 76.8668 12.7714 75.2867 11.4633C74.0261 10.4233 72.8166 9.30645 71.4683 8.39219C69.1094 6.79399 65.9057 8.21388 65.37 11.0216C65.0181 12.8713 65.8559 14.1992 67.2269 15.3451C78.9491 25.1635 90.6582 34.9975 102.374 44.8237C102.652 45.0568 102.943 45.2744 103.243 45.4816C105.327 46.9161 108.182 46.1028 109.203 43.7917C109.99 42.0144 109.512 40.1947 107.848 38.7856C105.431 36.7397 102.999 34.712 100.573 32.6765C100.363 32.5 100.15 32.3213 99.895 32.1077C100.086 31.9752 100.182 31.8921 100.292 31.8293C102.961 30.3507 103.317 27.0819 101.028 25.0633C100.618 24.702 100.193 24.3589 99.7778 24.0102C95.5417 20.4558 91.3057 16.9013 87.0696 13.3468C85.6645 12.1677 84.1131 11.8808 82.4347 12.6794C81.2579 13.2386 80.6144 14.2541 80.257 15.5142Z" fill="#B82C30"/>
<path d="M51.808 110C50.5571 109.674 49.33 109.321 48.2792 108.492C46.5165 107.107 45.5673 105.294 45.4283 103.087C44.9334 95.0701 44.4758 87.0534 43.9978 79.0368C43.5606 71.6958 43.1233 64.3514 42.669 57.0105C42.3911 52.5522 45.6148 49.0583 50.2148 49.0481C63.9469 49.0108 77.6791 49.0176 91.4112 49.0447C95.2078 49.0515 98.0553 51.2416 98.7468 54.8442C99.0451 56.3925 98.8655 58.0495 98.7841 59.6521C98.5299 64.4805 98.2146 69.3054 97.9265 74.1303C97.5265 80.8228 97.1299 87.5186 96.7299 94.211C96.5638 96.9885 96.3231 99.7626 96.2519 102.54C96.1502 106.496 93.4316 109.44 89.9468 109.912C89.9028 109.918 89.8621 109.966 89.8214 109.997C77.1503 110 64.4791 110 51.808 110ZM90.5807 64.2122C90.6011 62.4907 89.3231 61.0782 87.618 61.0069C85.8485 60.9322 84.4926 62.1987 84.3536 64.056C84.0858 67.6824 83.8181 71.3121 83.5469 74.9385C83.0147 82.0655 82.4723 89.1892 81.9469 96.3162C81.8147 98.1192 83.0248 99.5759 84.7333 99.7355C86.5096 99.9018 87.9604 98.7066 88.1265 96.8561C88.357 94.2688 88.5333 91.6746 88.7299 89.0839C89.0723 84.5238 89.4146 79.9637 89.7536 75.4036C90.0316 71.6992 90.3028 67.9948 90.5807 64.2122ZM51.0521 64.382C51.0588 64.4601 51.069 64.6163 51.0792 64.7691C51.5334 70.8571 51.9843 76.9486 52.4385 83.0366C52.7809 87.6239 53.1131 92.2111 53.4893 96.795C53.6453 98.7066 55.0961 99.9086 56.9029 99.7355C58.6385 99.5657 59.8113 98.0819 59.669 96.2279C59.4419 93.2467 59.2147 90.2689 58.991 87.2877C58.4114 79.5155 57.8385 71.7399 57.2554 63.9677C57.1198 62.1749 55.7266 60.9288 53.9842 61.0103C52.2893 61.085 51.0148 62.5111 51.0521 64.382ZM73.9299 80.3542C73.9299 79.3152 73.9299 78.2728 73.9299 77.2338C73.9299 72.9182 73.9401 68.5991 73.9266 64.2835C73.9198 62.2768 72.4723 60.8881 70.574 61.0103C68.8622 61.1224 67.6995 62.5009 67.6995 64.4533C67.6961 75.0641 67.6961 85.6715 67.6995 96.2823C67.6995 96.4894 67.6961 96.6999 67.7164 96.907C67.8656 98.5267 69.1706 99.7388 70.7808 99.7558C72.5977 99.7728 73.9232 98.3942 73.9266 96.4283C73.9367 91.0669 73.9299 85.7122 73.9299 80.3542Z" fill="#B82C30"/>
<path d="M48.75 41.8334L58.3333 32.2501L48.75 22.6667" stroke="#B82C30" stroke-width="4" stroke-linecap="round" stroke-linejoin="round"/>
<path d="M27.667 53.3333V39.9167C27.667 37.8833 28.4747 35.9333 29.9125 34.4955C31.3503 33.0577 33.3003 32.25 35.3337 32.25H58.3337" stroke="#B82C30" stroke-width="4" stroke-linecap="round" stroke-linejoin="round"/>
<path d="M28.5 83.75C28.5 84.413 28.2366 85.0489 27.7678 85.5178C27.2989 85.9866 26.663 86.25 26 86.25H6C5.33696 86.25 4.70107 85.9866 4.23223 85.5178C3.76339 85.0489 3.5 84.413 3.5 83.75V66.25C3.5 65.587 3.76339 64.9511 4.23223 64.4822C4.70107 64.0134 5.33696 63.75 6 63.75H12.25L14.75 67.5H26C26.663 67.5 27.2989 67.7634 27.7678 68.2322C28.2366 68.7011 28.5 69.337 28.5 70V83.75Z" stroke="#B82C30" stroke-width="4" stroke-linecap="round" stroke-linejoin="round"/>
</svg>
