<svg width="82" height="120" viewBox="0 0 82 120" fill="none" xmlns="http://www.w3.org/2000/svg">
<path d="M21.5958 8.78936C21.3635 8.86342 21.2944 8.90292 21.2202 8.90292C18.2306 8.9128 15.2409 8.90292 12.2512 8.92267C9.86935 8.94242 7.47262 8.82886 5.11061 9.0708C0.979568 9.49543 -1.26719 14.0726 0.765148 17.7018C2.10521 20.0916 4.28472 20.7878 6.88895 20.7828C29.1757 20.7631 51.4624 20.773 73.7491 20.768C74.2779 20.768 74.8066 20.7384 75.3354 20.689C79.0068 20.3384 81.4319 16.7636 80.4077 13.2332C79.6209 10.5175 77.3818 8.93748 74.2043 8.92267C69.5889 8.90292 64.9734 8.91773 60.3579 8.91773C59.9576 8.91773 59.5524 8.91773 59.0681 8.91773C59.157 8.59185 59.1866 8.40916 59.2507 8.23634C60.8454 4.09368 58.1804 0.118898 53.7329 0.0102702C52.9373 -0.00948023 52.1417 0.00533263 51.351 0.00533263C43.2912 0.00533263 35.2314 0.00533263 27.1716 0.00533263C24.4982 0.00533263 22.4973 1.13605 21.3715 3.59498C20.5815 5.31821 20.8144 7.05131 21.5958 8.78936Z" fill="#B82C30"/>
<path d="M13.3445 120C11.5214 119.526 9.73283 119.012 8.2012 117.807C5.63203 115.792 4.24863 113.155 4.04606 109.945C3.32472 98.2852 2.65772 86.6254 1.96108 74.9655C1.32373 64.2884 0.686373 53.6064 0.0243174 42.9293C-0.380821 36.445 4.3178 31.3633 11.0224 31.3485C31.0372 31.2941 51.052 31.304 71.0669 31.3435C76.6005 31.3534 80.7507 34.5388 81.7586 39.7785C82.1934 42.0305 81.9315 44.4405 81.8129 46.7715C81.4424 53.7941 80.9829 60.8117 80.5629 67.8294C79.9799 77.5632 79.4019 87.302 78.8189 97.0358C78.5768 101.076 78.226 105.11 78.1222 109.15C77.974 114.903 74.0116 119.185 68.9325 119.872C68.8683 119.881 68.809 119.951 68.7497 119.995C50.2813 120 31.8129 120 13.3445 120ZM69.8564 53.4039C69.8861 50.9001 68.0234 48.8457 65.5382 48.742C62.9592 48.6333 60.9829 50.4754 60.7803 53.1768C60.39 58.4511 59.9997 63.7304 59.6044 69.0047C58.8287 79.3707 58.0382 89.7317 57.2724 100.098C57.0797 102.72 58.8436 104.839 61.3337 105.071C63.9226 105.313 66.0372 103.574 66.2793 100.883C66.6153 97.1198 66.8722 93.3467 67.1588 89.5786C67.6578 82.9462 68.1568 76.3137 68.6509 69.6813C69.056 64.2934 69.4513 58.9054 69.8564 53.4039ZM12.2427 53.6509C12.2526 53.7644 12.2674 53.9916 12.2822 54.2138C12.9443 63.0686 13.6014 71.9283 14.2635 80.7831C14.7625 87.455 15.2467 94.127 15.7951 100.794C16.0224 103.574 18.137 105.323 20.7704 105.071C23.3 104.824 25.0095 102.666 24.802 99.9693C24.471 95.6332 24.14 91.3022 23.8139 86.9661C22.969 75.6619 22.134 64.3526 21.2842 53.0483C21.0866 50.4408 19.056 48.6284 16.5164 48.7469C14.0461 48.8555 12.1884 50.9297 12.2427 53.6509ZM45.5876 76.8817C45.5876 75.3705 45.5876 73.8544 45.5876 72.3432C45.5876 66.0663 45.6024 59.7845 45.5827 53.5076C45.5728 50.589 43.4631 48.5691 40.6963 48.7469C38.2012 48.9099 36.5066 50.9149 36.5066 53.7546C36.5016 69.1874 36.5016 84.6154 36.5066 100.048C36.5066 100.35 36.5016 100.656 36.5313 100.957C36.7487 103.313 38.6508 105.076 40.9977 105.1C43.6459 105.125 45.5777 103.12 45.5827 100.261C45.5975 92.4627 45.5876 84.6747 45.5876 76.8817Z" fill="#B82C30"/>
</svg>
