<svg width="56" height="56" viewBox="0 0 56 56" fill="none" xmlns="http://www.w3.org/2000/svg">
<g filter="url(#filter0_d_155_423905)">
<circle cx="28" cy="26" r="24" fill="white"/>
<circle cx="28" cy="26" r="23.5" stroke="#E1DCDC"/>
</g>
<path d="M17 18V24H23" stroke="#3B3838" stroke-width="1.5" stroke-linecap="round" stroke-linejoin="round"/>
<path d="M19.51 28.9999C20.1584 30.8403 21.3873 32.4201 23.0117 33.5013C24.636 34.5825 26.5677 35.1065 28.5157 34.9944C30.4637 34.8823 32.3226 34.1401 33.8121 32.8797C35.3017 31.6193 36.3413 29.9089 36.7742 28.0063C37.2072 26.1037 37.0101 24.1119 36.2126 22.331C35.4152 20.5502 34.0605 19.0767 32.3528 18.1327C30.6451 17.1887 28.6769 16.8252 26.7447 17.0971C24.8125 17.3689 23.0209 18.2614 21.64 19.6399L17 23.9999" stroke="#3B3838" stroke-width="1.5" stroke-linecap="round" stroke-linejoin="round"/>
<defs>
<filter id="filter0_d_155_423905" x="0" y="0" width="56" height="56" filterUnits="userSpaceOnUse" color-interpolation-filters="sRGB">
<feFlood flood-opacity="0" result="BackgroundImageFix"/>
<feColorMatrix in="SourceAlpha" type="matrix" values="0 0 0 0 0 0 0 0 0 0 0 0 0 0 0 0 0 0 127 0" result="hardAlpha"/>
<feOffset dy="2"/>
<feGaussianBlur stdDeviation="2"/>
<feComposite in2="hardAlpha" operator="out"/>
<feColorMatrix type="matrix" values="0 0 0 0 0 0 0 0 0 0 0 0 0 0 0 0 0 0 0.2 0"/>
<feBlend mode="normal" in2="BackgroundImageFix" result="effect1_dropShadow_155_423905"/>
<feBlend mode="normal" in="SourceGraphic" in2="effect1_dropShadow_155_423905" result="shape"/>
</filter>
</defs>
</svg>
