<svg width="56" height="56" viewBox="0 0 56 56" fill="none" xmlns="http://www.w3.org/2000/svg">
<g filter="url(#filter0_d_155_423902)">
<circle cx="28" cy="26" r="24" fill="white"/>
<circle cx="28" cy="26" r="23.5" stroke="#E1DCDC"/>
</g>
<path d="M19 20H21H37" stroke="#3B3838" stroke-width="1.5" stroke-linecap="round" stroke-linejoin="round"/>
<path d="M35 20V34C35 34.5304 34.7893 35.0391 34.4142 35.4142C34.0391 35.7893 33.5304 36 33 36H23C22.4696 36 21.9609 35.7893 21.5858 35.4142C21.2107 35.0391 21 34.5304 21 34V20M24 20V18C24 17.4696 24.2107 16.9609 24.5858 16.5858C24.9609 16.2107 25.4696 16 26 16H30C30.5304 16 31.0391 16.2107 31.4142 16.5858C31.7893 16.9609 32 17.4696 32 18V20" stroke="#3B3838" stroke-width="1.5" stroke-linecap="round" stroke-linejoin="round"/>
<path d="M26 25V31" stroke="#3B3838" stroke-width="1.5" stroke-linecap="round" stroke-linejoin="round"/>
<path d="M30 25V31" stroke="#3B3838" stroke-width="1.5" stroke-linecap="round" stroke-linejoin="round"/>
<defs>
<filter id="filter0_d_155_423902" x="0" y="0" width="56" height="56" filterUnits="userSpaceOnUse" color-interpolation-filters="sRGB">
<feFlood flood-opacity="0" result="BackgroundImageFix"/>
<feColorMatrix in="SourceAlpha" type="matrix" values="0 0 0 0 0 0 0 0 0 0 0 0 0 0 0 0 0 0 127 0" result="hardAlpha"/>
<feOffset dy="2"/>
<feGaussianBlur stdDeviation="2"/>
<feComposite in2="hardAlpha" operator="out"/>
<feColorMatrix type="matrix" values="0 0 0 0 0 0 0 0 0 0 0 0 0 0 0 0 0 0 0.2 0"/>
<feBlend mode="normal" in2="BackgroundImageFix" result="effect1_dropShadow_155_423902"/>
<feBlend mode="normal" in="SourceGraphic" in2="effect1_dropShadow_155_423902" result="shape"/>
</filter>
</defs>
</svg>
