<svg width="12" height="12" viewBox="0 0 12 12" fill="none" xmlns="http://www.w3.org/2000/svg">
<g id="&#240;&#159;&#167;&#172; arrow-down">
<path id="Vector" d="M9.74996 3.99589L5.99996 7.65214L2.24996 3.99589C2.17971 3.92564 2.09771 3.89051 2.00396 3.89051C1.91021 3.89051 1.82821 3.92564 1.75796 3.99589C1.68771 4.06614 1.65259 4.14814 1.65259 4.24189C1.65259 4.33564 1.68384 4.41376 1.74634 4.47626L5.74234 8.36689C5.81259 8.43714 5.89859 8.47226 6.00034 8.47226C6.10209 8.47226 6.18809 8.43714 6.25834 8.36689L10.2543 4.48789C10.3168 4.41764 10.3481 4.33364 10.3481 4.23589C10.3481 4.13814 10.313 4.05614 10.2427 3.98989C10.1725 3.92364 10.0905 3.89039 9.99671 3.89014C9.90296 3.88989 9.82096 3.92501 9.75071 3.99551L9.74996 3.99589Z" fill="#C91F2F"/>
</g>
</svg>
