<svg width="16" height="16" viewBox="0 0 16 16" fill="none" xmlns="http://www.w3.org/2000/svg">
<g id="&#240;&#159;&#167;&#172; Language">
<path id="Vector" d="M8.58033 10.0473L6.88699 8.37398L6.90699 8.35398C8.06699 7.06065 8.89366 5.57398 9.38033 4.00065H11.3337V2.66732H6.66699V1.33398H5.33366V2.66732H0.666992V3.99398H8.11366C7.66699 5.28065 6.96033 6.50065 6.00033 7.56732C5.38033 6.88065 4.86699 6.12732 4.46033 5.33398H3.12699C3.61366 6.42065 4.28033 7.44732 5.11366 8.37398L1.72033 11.7207L2.66699 12.6673L6.00033 9.33398L8.07366 11.4073L8.58033 10.0473ZM12.3337 6.66732H11.0003L8.00033 14.6673H9.33366L10.0803 12.6673H13.247L14.0003 14.6673H15.3337L12.3337 6.66732ZM10.587 11.334L11.667 8.44732L12.747 11.334H10.587Z" fill="#303133"/>
</g>
</svg>
