<svg width="16" height="16" viewBox="0 0 16 16" fill="none" xmlns="http://www.w3.org/2000/svg">
<g id="&#240;&#159;&#167;&#172; element-plus">
<path id="Vector" d="M13.1203 11.4797C13.1203 12 12.8406 12.1203 12.8406 12.1203C12.8406 12.1203 8.12034 14.8406 7.80002 15C7.64065 15.0797 7.47971 15.0797 7.32034 15C7.32034 15 2.40002 12.1203 2.24065 12C2.16096 11.9203 2.08127 11.8 2.04065 11.6797V5.75938C2.04065 5.47969 2.36096 5.31875 2.36096 5.31875L7.28127 2.47813C7.48127 2.39844 7.68127 2.39844 7.88127 2.47813C7.88127 2.47813 12.2406 4.99844 12.7219 5.27812C13.0016 5.39844 13.1625 5.67812 13.1219 5.99844C13.1203 5.92031 13.1203 10.9594 13.1203 11.4797ZM11.1594 5.8C10.1594 5.24063 7.7594 3.84063 7.7594 3.84063C7.63909 3.76094 7.43909 3.76094 7.27971 3.84063L3.40002 6.07969C3.40002 6.07969 3.12034 6.23906 3.12034 6.43906V11.0797C3.12034 11.1594 3.20002 11.2797 3.24065 11.3594C3.36096 11.4391 7.24065 13.6797 7.24065 13.6797C7.36096 13.7594 7.52034 13.7594 7.64065 13.6797C7.88127 13.5594 11.561 11.4 11.561 11.4C11.561 11.4 11.761 11.3203 11.761 10.9203V9.76094L7.44065 12.4016V11.4016C7.44065 11.1219 7.56096 10.9219 7.76096 10.6812L11.6406 8.35938C11.7203 8.23906 11.8 8.03906 11.8 7.87969V6.83906L7.44065 9.47969V8.4C7.44065 8.15937 7.52034 7.92031 7.72034 7.8L11.1594 5.8ZM14.3594 2.12031C14.3594 2.04062 14.2797 2 14.2391 2H13.3188V1.04062C13.3188 0.960937 13.2391 0.960938 13.1594 0.960938L12.6797 1.04062C12.6 1.04062 12.6 1.08125 12.6 1.12031V2H11.7203C11.6406 2 11.6406 2.07969 11.6 2.07969V2.67969H12.6797V3.67969C12.6797 3.75938 12.7594 3.75938 12.8391 3.75938L13.3188 3.67969C13.3985 3.67969 13.3985 3.63906 13.3985 3.6V2.72031H14.3985L14.3594 2.12031Z" fill="#C91F2F"/>
</g>
</svg>
