<svg width="12" height="12" viewBox="0 0 12 12" fill="none" xmlns="http://www.w3.org/2000/svg">
<g id="&#240;&#159;&#167;&#172; search">
<path id="Vector" d="M9.32819 8.80094L10.7929 10.2657C10.8632 10.3439 10.8983 10.4318 10.8983 10.5293C10.8983 10.6268 10.8612 10.7128 10.7869 10.7873C10.7127 10.8618 10.6267 10.8989 10.5289 10.8987C10.4312 10.8984 10.3433 10.8633 10.2653 10.7933L8.80056 9.32856C7.76156 10.1801 6.60919 10.5687 5.34344 10.4944C4.07769 10.4202 2.98006 9.90256 2.05056 8.94156C1.15981 7.93381 0.726185 6.79706 0.749685 5.53131C0.773185 4.26556 1.24981 3.14831 2.17956 2.17956C3.14831 1.24981 4.26556 0.773185 5.53131 0.749685C6.79706 0.726185 7.93381 1.15981 8.94156 2.05056C9.90256 2.98031 10.4202 4.07794 10.4944 5.34344C10.5687 6.60894 10.1801 7.76131 9.32856 8.80056L9.32819 8.80094ZM5.62506 9.75006C6.79706 9.71881 7.76969 9.31644 8.54294 8.54294C9.31618 7.76944 9.71856 6.79681 9.75006 5.62506C9.71881 4.45306 9.31644 3.48044 8.54294 2.70719C7.76944 1.93394 6.79681 1.53156 5.62506 1.50006C4.45306 1.53131 3.48044 1.93369 2.70719 2.70719C1.93394 3.48069 1.53156 4.45331 1.50006 5.62506C1.53131 6.79706 1.93369 7.76969 2.70719 8.54294C3.48069 9.31619 4.45331 9.71856 5.62506 9.75006Z" fill="#A8ABB2"/>
</g>
</svg>
