<svg width="24" height="24" viewBox="0 0 24 24" fill="none" xmlns="http://www.w3.org/2000/svg">
<path d="M11.249 8.2417V13.4917L15.749 15.7417" stroke="black" stroke-width="1.5" stroke-linecap="round"/>
<path d="M2.30358 10.3294L2.53688 9.45869C3.08489 7.41814 4.27784 5.60941 5.9378 4.30225C7.59776 2.99508 9.6358 2.25952 11.748 2.20527C13.8601 2.15102 15.9332 2.78099 17.6581 4.00121C19.383 5.22144 20.6672 6.96655 21.3192 8.97627C21.9713 10.986 21.9562 13.1527 21.2763 15.1531C20.5963 17.1536 19.2879 18.8806 17.5463 20.0767C15.8046 21.2728 13.7229 21.8739 11.6117 21.7903C9.5005 21.7066 7.47289 20.9428 5.83128 19.6127" stroke="#120405" stroke-width="1.5" stroke-linecap="round" stroke-linejoin="round"/>
<path d="M1.22363 7.58533L2.20343 10.5247L4.65292 9.05502" stroke="black" stroke-width="1.5" stroke-linecap="round"/>
</svg>
